<?xml version="1.0" encoding="UTF-8" standalone="no"?>
<!-- Created with Inkscape (http://www.inkscape.org/) -->

<svg
   version="1.1"
   id="svg1"
   width="1254.066"
   height="410.78506"
   viewBox="0 0 1254.0661 410.78506"
   sodipodi:docname="elsterside-logo-refined_1.png"
   xmlns:inkscape="http://www.inkscape.org/namespaces/inkscape"
   xmlns:sodipodi="http://sodipodi.sourceforge.net/DTD/sodipodi-0.dtd"
   xmlns="http://www.w3.org/2000/svg"
   xmlns:svg="http://www.w3.org/2000/svg">
  <defs
     id="defs1" />
  <sodipodi:namedview
     id="namedview1"
     pagecolor="#ffffff"
     bordercolor="#000000"
     borderopacity="0.25"
     inkscape:showpageshadow="2"
     inkscape:pageopacity="0.0"
     inkscape:pagecheckerboard="0"
     inkscape:deskcolor="#d1d1d1"
     inkscape:export-bgcolor="#ffffff00">
    <inkscape:page
       x="0"
       y="0"
       width="1254.066"
       height="410.78506"
       id="page2"
       margin="0"
       bleed="0" />
  </sodipodi:namedview>
  <g
     inkscape:groupmode="layer"
     inkscape:label="Image"
     id="g1"
     transform="translate(-308.60072,-336.07797)">
    <path
       style="fill:#000000;stroke-width:0.997115"
       d="m 371.28883,745.18624 c -31.10471,-7.88666 -54.40069,-31.89703 -60.91476,-62.78276 -1.67347,-7.93461 -1.98299,-18.28183 -1.65936,-55.47295 0.38324,-44.04181 0.50465,-45.91623 3.30954,-51.09669 5.69817,-10.52419 19.37986,-19.07726 30.51641,-19.07726 6.00576,0 16.38128,4.09141 21.62224,8.52637 10.63417,8.99875 10.94149,10.55972 11.89932,60.43977 0.9619,50.09172 1.04263,50.48746 11.00105,53.92902 3.875,1.33918 5.61955,2.70313 5.61955,4.39355 0,4.48928 6.46763,21.57581 11.15992,29.48285 2.54711,4.29217 8.39687,11.52376 12.99948,16.07018 4.6026,4.54643 8.00944,8.62108 7.57074,9.05479 -0.43871,0.4337 -4.89935,2.29229 -9.91256,4.1302 -11.32602,4.15227 -31.81798,5.29179 -43.21157,2.40293 z m 93.5987,1.08867 c -5.99308,-1.13148 -20.00979,-5.95255 -20.75033,-7.13712 -0.39739,-0.63566 1.97144,-3.61066 5.26407,-6.61111 8.93921,-8.14601 17.81203,-21.88725 22.22305,-34.41659 2.15844,-6.13095 3.93248,-12.39144 3.94232,-13.9122 0.0134,-2.08001 1.35876,-3.16218 5.43033,-4.36815 3.66544,-1.08568 6.25338,-2.96659 8.01775,-5.82728 2.54257,-4.12243 2.60543,-7.90292 2.6103,-156.99762 0.005,-167.87601 -0.4073,-159.23357 8.09234,-169.42763 2.20075,-2.63947 7.31672,-6.40261 11.36883,-8.36254 6.45574,-3.12252 8.50834,-3.4828 16.5867,-2.91138 10.69331,0.75638 19.26801,4.97248 24.8637,12.22522 7.53745,9.76952 7.28677,3.85683 7.28677,171.87468 0,149.93195 -0.0847,155.22825 -2.64141,165.11091 -6.8129,26.33468 -27.29348,48.8917 -52.26685,57.56596 -8.48233,2.94625 -31.57963,4.78979 -40.02757,3.19485 z m -36.45739,-17.76142 c -11.33807,-9.23933 -22.69419,-27.78492 -26.2523,-42.87247 -1.10491,-4.68513 -1.64346,-37.59122 -1.84978,-113.02174 l -0.29105,-106.41228 3.12607,-6.27545 c 5.47125,-10.98328 18.9991,-19.50144 30.97059,-19.50144 7.79947,0 17.58581,4.09698 23.31457,9.76048 10.55695,10.43668 10.11354,5.0326 10.11354,123.26005 0,70.46812 -0.4774,107.08419 -1.45759,111.79485 -2.63191,12.64869 -11.31061,28.37163 -21.1456,38.30887 -4.90659,4.95759 -9.51319,9.01381 -10.2369,9.01381 -0.72371,0 -3.5549,-1.8246 -6.29155,-4.05468 z M 633.36291,716.375 c -0.001,-0.18176 -0.15168,-72.90233 -0.33428,-161.60125 l -0.33199,-161.27079 4.34565,-0.41423 4.34565,-0.41422 0.005,30.15679 c 0.003,16.58622 0.40007,89.4932 0.8833,162.01548 l 0.87861,131.85869 h -4.89467 c -2.69206,0 -4.89569,-0.14871 -4.89695,-0.33047 z m 96.97613,-59.94289 c -6.51433,-2.35744 -14.05063,-7.30162 -14.063,-9.22599 -0.005,-0.78207 1.49919,-2.82279 3.34268,-4.53494 l 3.35182,-3.113 3.66808,3.45942 c 4.82252,4.54817 9.72883,6.2714 17.85572,6.2714 5.33549,0 7.32956,-0.66258 10.03065,-3.33289 6.8934,-6.81488 2.24837,-11.97904 -15.24261,-16.94618 -6.20703,-1.76268 -12.53049,-4.4929 -14.37612,-6.20701 -8.70384,-8.08369 -5.96535,-22.79475 5.17405,-27.79483 8.40775,-3.77394 18.87377,-3.36746 27.67278,1.07476 3.96026,1.99937 7.36329,4.23006 7.56228,4.9571 0.199,0.72705 -0.67694,2.65538 -1.9465,4.28522 l -2.3083,2.96332 -6.57795,-3.2938 c -8.83367,-4.4233 -17.11878,-4.44218 -21.56244,-0.0492 -6.47292,6.39918 -2.77358,11.40084 11.21553,15.16391 16.72617,4.49933 23.67812,10.38168 23.4277,19.82321 -0.30376,11.4521 -9.6674,18.68437 -23.97333,18.51643 -4.36419,-0.0512 -10.32715,-0.95887 -13.25104,-2.01698 z m 155.07409,0.1376 c -6.45928,-2.24205 -13.03369,-9.32326 -15.15516,-16.32346 -0.89876,-2.96562 -1.55889,-13.8953 -1.55889,-25.81027 v -20.66643 h 4.67994 4.67993 l 0.0583,17.51507 c 0.032,9.63327 0.56593,20.11342 1.18645,23.2892 2.24624,11.49603 13.53311,17.48359 24.45397,12.97254 8.32404,-3.43838 9.6452,-7.63241 10.17359,-32.29607 l 0.46018,-21.48074 h 4.56488 4.56489 v 20.95301 c 0,12.15034 -0.63932,22.84075 -1.52178,25.44642 -5.0861,15.01783 -20.57146,21.95955 -36.58626,16.40073 z m 218.28277,0.16745 c -13.1751,-4.86075 -21.0569,-16.42055 -21.0569,-30.88327 0,-13.8961 6.1661,-24.3282 17.754,-30.03688 19.7558,-9.73259 42.96,1.49402 47.6355,23.04696 2.8622,13.19416 -3.8771,28.53399 -15.4923,35.26347 -7.3081,4.23403 -21.0636,5.47875 -28.8403,2.60972 z m 20.7921,-9.23409 c 14.8851,-6.14857 18.8614,-27.82078 7.1525,-38.98428 -12.21,-11.64132 -29.9595,-8.26402 -37.1145,7.06197 -4.2041,9.00543 -2.4439,19.40459 4.5565,26.9188 6.0136,6.45484 16.7655,8.5724 25.4055,5.00351 z m 61.8995,8.9595 c -2.875,-1.04137 -7.2499,-3.41856 -9.722,-5.28266 l -4.4947,-3.38926 3.0363,-3.74729 c 2.7606,-3.40703 3.2791,-3.57552 5.7105,-1.85556 9.7445,6.89313 21.2912,8.93058 28.8146,5.08441 3.2125,-1.64229 3.9449,-2.86392 3.9449,-6.57898 0,-5.79779 -2.5167,-7.43945 -17.3825,-11.33847 -14.8454,-3.89364 -20.0569,-8.5016 -20.0569,-17.734 0,-7.99779 3.2094,-13.26591 10.0871,-16.5574 9.431,-4.51349 24.9934,-2.75591 33.3861,3.77056 3.3317,2.59085 3.3375,2.55295 -1.409,9.19816 -0.1503,0.21047 -3.1471,-1.12795 -6.6595,-2.97426 -8.725,-4.58621 -18.1901,-4.63291 -22.7629,-0.11228 -6.8887,6.81026 -3.4658,11.14056 12.1072,15.3168 12.8514,3.44642 18.7271,6.76694 21.5611,12.18482 2.496,4.77183 1.8275,12.64294 -1.5003,17.66391 -5.0093,7.55795 -22.4871,10.76079 -34.66,6.3515 z m -375.18477,-26.2854 v -27.04318 l -10.36271,-0.38607 -10.36272,-0.38607 -0.419,-4.29616 -0.41899,-4.29614 h 26.8272 26.82721 v 4.62662 4.62662 h -10.697 -10.697 v 27.09878 27.09878 h -5.34849 -5.3485 z m 144.40943,-2.45852 c 0,-16.37196 -0.38323,-30.75451 -0.85163,-31.96122 -0.77315,-1.99186 0.86964,-2.15407 17.82886,-1.76048 18.1061,0.42021 18.88153,0.55655 25.2188,4.43416 16.60201,10.15829 20.22141,32.3564 7.64441,46.88247 -7.99288,9.23144 -13.19934,11.08364 -32.79211,11.66575 l -17.04833,0.50652 z m 34.8054,17.2742 c 8.34294,-4.16672 11.99404,-10.06713 11.99404,-19.38354 0,-9.37753 -3.27233,-15.68239 -10.16772,-19.59052 -4.22309,-2.39355 -7.29771,-2.95663 -16.24058,-2.97425 l -11.03128,-0.0217 v 22.47212 22.47216 h 9.74511 c 7.4501,0 11.14762,-0.70046 15.70043,-2.97426 z m 52.10774,-19.4979 v -31.7254 h 4.6799 4.6799 v 31.7254 31.7254 h -4.6799 -4.6799 z M 903.60916,558.05399 c -7.23707,-1.50787 -20.86239,-7.87909 -26.1339,-12.22026 l -3.9265,-3.23355 6.50647,-8.76042 6.50647,-8.76042 4.10565,3.08473 c 10.2908,7.73185 22.51582,11.16021 31.38074,8.80032 4.18962,-1.11529 5.66176,-2.25713 6.33647,-4.91478 1.72163,-6.78138 -1.75892,-9.15754 -20.90888,-14.27443 -19.80851,-5.29286 -27.33536,-11.91774 -28.96142,-25.49085 -1.52291,-12.71204 6.51985,-26.50613 18.00005,-30.87177 15.52878,-5.90522 40.01205,-2.3029 52.29259,7.69401 l 3.22318,2.62381 -5.17458,8.47439 c -2.84601,4.66092 -5.25957,8.63341 -5.36347,8.82778 -0.10389,0.19437 -4.30466,-1.55066 -9.33502,-3.87784 -15.88767,-7.35004 -28.6927,-6.34787 -28.6927,2.24558 0,4.2217 1.97407,5.36568 16.10983,9.33578 22.15898,6.22345 30.35138,11.94785 33.46642,23.38445 2.6901,9.87642 -0.95428,22.81505 -8.34621,29.63156 -7.90511,7.28974 -27.21545,11.1917 -41.08519,8.30191 z m 364.89014,-0.49382 c -10.2831,-1.93898 -16.5324,-4.47632 -24.6888,-10.02418 l -5.9986,-4.08014 6.1101,-8.22092 c 3.3606,-4.5215 6.342,-8.45668 6.6252,-8.74482 0.2833,-0.28816 2.9929,1.09713 6.0213,3.07843 7.8467,5.1335 15.1176,7.35967 24.0375,7.35967 8.5877,0 11.9615,-2.05064 11.9615,-7.27041 0,-4.22309 -3.0346,-6.91631 -9.7543,-8.65713 -30.1965,-7.82269 -36.602,-11.96043 -39.7048,-25.648 -2.2729,-10.02632 1.0851,-21.50451 8.2124,-28.0722 11.9703,-11.03037 38.2383,-11.3092 57.6251,-0.61168 3.4924,1.92714 6.3506,3.99864 6.3514,4.60335 0,0.95816 -8.807,16.54886 -10.1222,17.91655 -0.2695,0.28024 -1.8626,-0.37144 -3.5403,-1.44819 -11.0816,-7.1124 -28.3655,-9.7256 -33.1355,-5.00985 -5.7964,5.73025 -1.503,9.67568 16.0292,14.73039 16.8429,4.85599 22.6185,7.62069 27.2239,13.03147 9.62,11.30238 6.6976,32.1692 -5.7304,40.91795 -9.0095,6.34214 -23.7179,8.75276 -37.5227,6.14971 z M 713.38779,545.85098 c -0.11267,-5.99809 -0.10561,-26.07432 0.0157,-44.61385 0.1213,-18.53953 0.2135,-35.34408 0.20486,-37.34344 l -0.0157,-3.63521 h 36.10235 36.10236 v 10.57514 10.57514 h -24.06824 -24.06823 v 7.89778 7.89778 l 21.0597,0.36404 21.05971,0.36404 0.39286,9.58371 c 0.37571,9.16538 0.25898,9.59437 -2.67424,9.82774 -1.68692,0.13421 -4.27053,0.37302 -5.74136,0.53069 -1.47084,0.15766 -9.7443,0.34528 -18.38547,0.41692 l -15.71119,0.13026 v 8.56248 8.56248 l 24.40251,0.36029 24.40252,0.36029 0.0743,10.24466 0.0743,10.24466 H 750.1036 713.59266 Z m 91.12932,-37.34345 v -48.24905 h 12.03412 12.03412 v 37.67392 37.67391 h 20.05686 20.05687 v 10.57514 10.57513 h -32.09099 -32.09098 z m 184.52315,11.23608 v -37.01296 h -14.0398 -14.03981 v -11.23608 -11.23609 h 40.11375 40.1137 v 11.23609 11.23608 h -14.0398 -14.0398 v 37.01296 37.01297 h -12.0341 -12.03414 z m 66.70824,-7.60087 c -0.1436,-43.28366 -0.029,-50.49518 0.8221,-51.88426 0.2228,-0.36351 16.4083,-0.49327 35.9679,-0.28832 l 35.5627,0.37261 v 10.533 10.53299 h -24.8909 -24.8908 l 0.9517,7.60087 c 0.5234,4.18048 1.0439,7.67137 1.1568,7.75751 0.5633,0.4299 25.4152,1.77074 33.2992,1.7966 l 9.0255,0.0297 v 9.25323 9.25325 h -7.8147 c -4.2982,0 -14.0759,0.37731 -21.7283,0.83848 l -13.9136,0.83846 0.4471,8.38539 0.4471,8.38538 24.2897,0.35985 24.2898,0.35983 0.1891,10.24466 0.1892,10.24466 h -36.6259 -36.6257 z m 91.0725,-3.63521 v -48.24905 h 27.2428 c 28.7672,0 34.0881,0.83738 42.3708,6.66803 6.5873,4.63714 10.8966,13.45747 11.6482,23.84122 0.6027,8.32753 0.2757,9.93909 -3.5943,17.71049 -3.153,6.33177 -5.6149,9.34967 -9.4912,11.63488 l -5.2339,3.08554 10.6482,16.20207 c 5.8565,8.91114 10.6481,16.46167 10.6481,16.77897 0,0.31729 -6.2525,0.5769 -13.8945,0.5769 h -13.8946 l -9.5907,-14.54081 -9.5906,-14.54081 h -6.6001 -6.6001 v 14.54081 14.54081 h -12.0341 -12.034 z m 50.8148,-3.96779 c 7.0305,-3.5942 7.869,-17.02912 1.2803,-20.5151 -1.3452,-0.7117 -8.2016,-1.29399 -15.2363,-1.29399 h -12.7907 v 11.89702 11.89703 h 11.432 c 7.5519,0 12.7498,-0.6737 15.3147,-1.98496 z m 137.7196,3.96779 v -48.24905 h 12.0341 12.0342 v 48.24905 48.24905 h -12.0342 -12.0341 z m 46.4975,-5.3e-4 -0.3667,-48.24959 24.8284,5.4e-4 c 26.7107,5.7e-4 34.5298,1.2904 43.9044,7.2424 34.7283,22.04927 27.6586,74.32968 -11.7115,86.60636 -7.1823,2.23963 -12.1971,2.64987 -32.393,2.64987 h -23.895 z m 52.1311,23.54135 c 17.9651,-8.42571 17.8978,-38.66867 -0.104,-46.74866 -4.0226,-1.80549 -8.6938,-2.51914 -16.6257,-2.54002 l -11.0313,-0.029 v 26.61962 26.61961 l 11.6999,-0.93806 c 6.4349,-0.51593 13.6624,-1.8585 16.0611,-2.98347 z m 56.0197,9.83695 c -1.1142,-19.11647 -1.1325,-67.53143 -0.029,-75.4938 l 0.8503,-6.13302 h 35.9206 35.9206 v 10.57514 10.57514 h -24.7368 -24.7368 v 8.34489 8.34489 l 5.6827,-0.0516 c 3.1256,-0.0285 12.7529,0.0829 21.3941,0.24739 l 15.7116,0.29907 v 9.25323 9.25325 h -21.3939 -21.394 v 9.25324 9.25324 h 24.7368 24.7368 v 10.57514 10.57513 h -35.8981 -35.8981 z"
       id="path1"
       inkscape:export-filename="path1.pdf"
       inkscape:export-xdpi="96"
       inkscape:export-ydpi="96" />
  </g>
</svg>
